# AST/ASF file generated using VICON BodyLanguage
# -----------------------------------------------
:version 1.10
:name VICON
:units
  mass 1.0
  length 0.45
  angle deg
:documentation
   .ast/.asf automatically generated from VICON data using
   VICON BodyBuilder and BodyLanguage model FoxedUp or BRILLIANT.MOD
:root
   order TX TY TZ RX RY RZ
   axis XYZ
   position 0 0 0  
   orientation 0 0 0 
:bonedata
  begin
     id 1 
     name lhipjoint
     direction 0.630082 -0.636569 0.44472 
     length 2.82754 
     axis 0 0 0  XYZ
  end
  begin
     id 2 
     name lfemur
     direction 0.34202 -0.939693 0  
     length 7.26371  
     axis 0 0 20  XYZ
    dof rx ry rz
    limits (-160.0 20.0)
           (-70.0 70.0)
           (-60.0 70.0)
  end
  begin
     id 3 
     name ltibia
     direction 0.34202 -0.939693 0   
     length 7.88616   
     axis 0 0 20   XYZ
    dof rx
    limits (-10.0 170.0)
  end
  begin
     id 4 
     name lfoot
     direction 0.0603448 -0.165796 0.984312   
     length 1.77861   
     axis -90 7.62852e-016 20   XYZ
    dof rx rz
    limits (-45.0 90.0)
           (-70.0 20.0)
  end
  begin
     id 5 
     name ltoes
     direction 1.53577e-011 -4.21876e-011 1   
     length 0.902235   
     axis -90 7.62852e-016 20   XYZ
    dof rx
    limits (-90.0 20.0)
  end
  begin
     id 6 
     name rhipjoint
     direction -0.656778 -0.61817 0.431866   
     length 2.9117  
     axis 0 0 0  XYZ 
  end
  begin
     id 7 
     name rfemur
     direction -0.34202 -0.939693 0   
     length 6.81603   
     axis 0 0 -20   XYZ
    dof rx ry rz
    limits (-160.0 20.0)
           (-70.0 70.0)
           (-70.0 60.0)
  end
  begin
     id 8 
     name rtibia
     direction -0.34202 -0.939693 0   
     length 8.05997   
     axis 0 0 -20   XYZ
    dof rx
    limits (-10.0 170.0)
 end
 begin
     id 9 
     name rfoot
     direction -0.0862404 -0.236944 0.967688   
     length 1.84899  
     axis -90 -7.62852e-016 -20   XYZ
    dof rx rz
    limits (-45.0 90.0)
           (-20.0 70.0)
  end
  begin
     id 10 
     name rtoes
     direction -1.53561e-011 -4.21798e-011 1   
     length 0.931579   
     axis -90 -7.62852e-016 -20   XYZ
    dof rx
    limits (-90.0 20.0)
  end
  begin
     id 11 
     name lowerback
     direction -0.0110203 0.991769 -0.127564   
     length 2.05686   
     axis 0 0 0   XYZ
    dof rx ry rz
    limits (-20.0 45.0)
           (-30.0 30.0)
           (-30.0 30.0)
  end
  begin
     id 12 
     name upperback
     direction 0.0109719 0.99993 -0.00432479   
     length 2.06234   
     axis 0 0 0   XYZ
    dof rx ry rz
    limits (-20.0 45.0)
           (-30.0 30.0)
           (-30.0 30.0)
  end
  begin
     id 13 
     name thorax
     direction 0.0173308 0.998351 0.0547306   
     length 2.09856   
     axis 0 0 0   XYZ
    dof rx ry rz
    limits (-20.0 45.0)
           (-30.0 30.0)
           (-30.0 30.0)
  end
  begin
     id 14 
     name lowerneck
     direction -0.0311736 0.989033 0.144366   
     length 1.98151   
     axis 0 0 0   XYZ
    dof rx ry rz
    limits (-20.0 45.0)
           (-30.0 30.0)
           (-30.0 30.0)
  end
  begin
     id 15 
     name upperneck
     direction 0.0421057 0.975772 -0.214698   
     length 2.01457   
     axis 0 0 0   XYZ
    dof rx ry rz
    limits (-20.0 45.0)
           (-30.0 30.0)
           (-30.0 30.0)
  end
  begin
     id 16
     name head
     direction 0.0136911 0.995958 -0.0887718  
     length 2.03562  
     axis 0 0 0   XYZ
    dof rx ry rz
    limits (-20.0 45.0)
           (-30.0 30.0)
           (-30.0 30.0)
  end
  begin
     id 17 
     name lclavicle
     direction 0.915335 0.396201 0.0720134  
     length 4.16217  
     axis 0 0 0   XYZ
    dof ry rz
    limits (-20.0 10.0)
           (0.0 20.0)
  end
  begin
     id 18 
     name lhumerus
     direction 1 -4.48965e-011 6.383e-018   
     length 4.93042   
     axis -180 -30 -90   XYZ
    dof rx ry rz
    limits (-60.0 90.0)
           (-90.0 90.0)
           (-90.0 90.0)
  end
  begin
     id 19
     name lradius
     direction 1 -4.48972e-011 8.8689e-027   
     length 3.68177   
     axis -180 -30 -90   XYZ
    dof rx
    limits (-10.0 170.0)
  end
  begin
     id 20
     name lwrist
     direction 1 -4.48953e-011 1.17971e-026   
     length 1.84089   
     axis -7.69454e-015 90 90   XYZ
    dof ry
    limits (-180.0 0.0)
 end
  begin
     id 21 
     name lhand
     direction 1 -4.49027e-011 2.35802e-026   
     length 0.721479   
     axis -1.50533e-014 90 90   XYZ
    dof rx rz
    limits (-90.0 90.0)
           (-45.0 45.0)
  end
  begin
     id 22 
     name lfingers
     direction 1 -4.48915e-011 4.72027e-026   
     length 0.581675   
     axis -3.01059e-014 90 90   XYZ
    dof rx
    limits (0.0 90.0)
  end
  begin
     id 23
     name lthumb
     direction 0.707107 -6.34948e-011 0.707107   
     length 0.835172   
     axis -90 45 -5.12164e-014   XYZ
    dof rx rz
    limits (-45.0 45.0)
           (-45.0 45.0)
  end
  begin
     id 24 
     name rclavicle
     direction -0.882781 0.469197 0.0234974   
     length 3.95647  
     axis 0 0 0   XYZ 
    dof ry rz
    limits (-10.0 20.0)
           (-20.0 0.0)
  end
  begin
     id 25 
     name rhumerus
     direction -1 -4.48965e-011 -1.54906e-018  
     length 5.07905   
     axis -180 30 90   XYZ
    dof rx ry rz
    limits (-90.0 60.0)
           (-90.0 90.0)
           (-90.0 90.0)
  end
  begin
     id 26 
     name rradius
     direction -1 -4.48972e-011 5.47489e-027   
     length 3.54394   
     axis -180 30 90   XYZ
    dof rx
    limits (-10.0 170.0)
  end
  begin
     id 27 
     name rwrist
     direction -1 -4.48955e-011 1.17969e-026   
     length 1.77197   
     axis -7.69454e-015 -90 -90   XYZ
    dof ry
    limits (-180.0 0.0)
  end
  begin
     id 28
     name rhand
     direction -1 -4.48982e-011 2.35888e-026   
     length 0.681156   
     axis -1.50533e-014 -90 -90   XYZ
    dof rx rz
    limits (-90.0 90.0)
           (-45.0 45.0)
  end
  begin
     id 29
     name rfingers
     direction -1 -4.48955e-011 4.71877e-026   
     length 0.549165   
     axis -3.01059e-014 -90 -90   XYZ
    dof rx
    limits (0.0 90.0)
  end
  begin
     id 30
     name rthumb
     direction -0.707107 -6.3491e-011 0.707107   
     length 0.788495   
     axis -90 -45 5.12164e-014   XYZ
    dof rx rz
    limits (-45.0 45.0)
           (-45.0 45.0)
  end
:hierarchy
  begin
    root lhipjoint rhipjoint lowerback
    lhipjoint lfemur
    lfemur ltibia
    ltibia lfoot
    lfoot ltoes
    rhipjoint rfemur
    rfemur rtibia
    rtibia rfoot
    rfoot rtoes
    lowerback upperback
    upperback thorax
    thorax lowerneck lclavicle rclavicle
    lowerneck upperneck
    upperneck head
    lclavicle lhumerus
    lhumerus lradius
    lradius lwrist
    lwrist lhand lthumb
    lhand lfingers
    rclavicle rhumerus
    rhumerus rradius
    rradius rwrist
    rwrist rhand rthumb
    rhand rfingers
  end

#!OML:ASF H:\Bending\Project 1\Capture day 1\Session 1\Subject.ASF
:FULLY-SPECIFIED
:DEGREES
421
root -10.2361 17.8876 -16.5022 -40.3263 86.9472 -44.7396
lowerback 3.92197 -0.101633 0.754553
upperback -2.61939 0.0232745 1.92111
thorax -4.91037 0.0322301 1.56259
lowerneck -22.7558 -5.53281 -7.95796
upperneck 28.9437 -6.72295 6.23552
head 14.2385 -2.77826 2.62888
rclavicle -8.09737e-015 1.98785e-015
rhumerus -38.3574 -10.1599 -73.0513
rradius 22.6585
rwrist 15.9522
rhand -15.2603 -21.5013
rfingers 7.12502
rthumb 10.9137 -51.1977
lclavicle -8.09737e-015 1.98785e-015
lhumerus -36.7438 18.7753 80.5148
lradius 17.4053
lwrist 9.3023
lhand -31.0374 7.62127
lfingers 7.12502
lthumb -4.3193 37.5572
rfemur 3.90967 4.00827 13.4127
rtibia -3.18055e-015
rfoot -8.37819 -17.5591
rtoes -2.8826
lfemur -8.40936 -23.3004 -10.0879
ltibia 23.5727
lfoot -28.2165 18.9376
ltoes -7.84777
422
root -10.2466 17.8907 -16.4997 -39.5575 86.9581 -44.0065
lowerback 4.00627 -0.0871638 0.643197
upperback -2.65942 0.0421902 1.98703
thorax -5.00092 0.0472871 1.69272
lowerneck -22.7853 -5.5195 -7.96131
upperneck 28.9492 -6.69298 6.21393
head 14.2435 -2.7684 2.62621
rclavicle -7.39852e-015 -1.51076e-014
rhumerus -38.3948 -9.57064 -73.1811
rradius 22.7432
rwrist 15.431
rhand -15.2716 -21.4515
rfingers 7.12502
rthumb 10.9028 -51.1485
lclavicle -7.39852e-015 -1.51076e-014
lhumerus -36.8928 18.752 80.496
lradius 17.3574
lwrist 9.30877
lhand -31.0417 7.56159
lfingers 7.12502
lthumb -4.32339 37.4975
rfemur 3.8257 4.02067 13.3737
rtibia 6.36111e-015
rfoot -8.35354 -17.5424
rtoes -2.70837
lfemur -8.45663 -23.1792 -10.0767
ltibia 23.4888
lfoot -28.0912 18.8841
ltoes -8.03758
423
root -10.2565 17.8943 -16.4969 -38.7187 86.9699 -43.2025
lowerback 4.08306 -0.0743275 0.522169
upperback -2.70168 0.0573139 2.04035
thorax -5.08959 0.0606751 1.81556
lowerneck -22.828 -5.49727 -7.92548
upperneck 28.9857 -6.6616 6.18222
head 14.2626 -2.75412 2.61367
rclavicle -6.80837e-015 -3.57812e-015
rhumerus -38.4088 -8.87806 -73.4026
rradius 22.8306
rwrist 14.8511
rhand -15.4435 -21.3858
rfingers 7.12502
rthumb 10.737 -51.0914
lclavicle -6.80837e-015 -3.57812e-015
lhumerus -37.0091 18.6397 80.5322
lradius 17.4126
lwrist 9.4379
lhand -31.0432 7.50231
lfingers 7.12502
lthumb -4.3249 37.4381
rfemur 3.74477 4.034 13.3261
rtibia 0
rfoot -8.38917 -17.501
rtoes -2.2121
lfemur -8.48378 -23.1028 -10.0747
ltibia 23.3797
lfoot -27.9528 18.9136
ltoes -8.18871
424
root -10.2656 17.8985 -16.4937 -37.7686 86.9852 -42.2948
lowerback 4.12747 -0.0605286 0.417498
upperback -2.74213 0.0725116 2.06786
thorax -5.15793 0.0730059 1.90224
lowerneck -22.8735 -5.47438 -7.86555
upperneck 29.0383 -6.63772 6.14714
head 14.2889 -2.74042 2.59457
rclavicle 8.47941e-015 2.78299e-015
rhumerus -38.4038 -8.31221 -73.6114
rradius 22.9056
rwrist 14.4306
rhand -15.6737 -21.2471
rfingers 7.12502
rthumb 10.515 -50.9641
lclavicle 8.47941e-015 2.78299e-015
lhumerus -37.078 18.4874 80.5899
lradius 17.5472
lwrist 9.63496
lhand -31.0281 7.46446
lfingers 7.12502
lthumb -4.31028 37.4006
rfemur 3.65656 4.04609 13.2681
rtibia 3.18055e-015
rfoot -8.45337 -17.4471
rtoes -1.57985
lfemur -8.50391 -23.0608 -10.082
ltibia 23.2515
lfoot -27.7969 19.0167
ltoes -8.38026
425
root -10.2741 17.9034 -16.4903 -36.724 87.0063 -41.3037
lowerback 4.1288 -0.0444228 0.3451
upperback -2.77842 0.0904004 2.06742
thorax -5.19734 0.0848426 1.94126
lowerneck -22.9086 -5.45834 -7.80472
upperneck 29.0917 -6.62597 6.11531
head 14.3145 -2.73143 2.57442
rclavicle -5.57839e-015 7.95139e-015
rhumerus -38.3819 -8.03483 -73.726
rradius 22.9785
rwrist 14.2989
rhand -15.8476 -21.0193
rfingers 7.12502
rthumb 10.3472 -50.7447
lclavicle -5.57839e-015 7.95139e-015
lhumerus -37.089 18.3294 80.6538
lradius 17.7378
lwrist 9.85328
lhand -30.9818 7.45201
lfingers 7.12502
lthumb -4.26561 37.389
rfemur 3.55551 4.05397 13.2028
rtibia 2.54444e-014
rfoot -8.5032 -17.3988
rtoes -1.05939
lfemur -8.53195 -23.0297 -10.095
ltibia 23.1177
lfoot -27.6248 19.1542
ltoes -8.6891
426
root -10.2824 17.9082 -16.4867 -35.7429 87.0339 -40.3803
lowerback 4.09681 -0.0261208 0.311336
upperback -2.80836 0.111984 2.04783
thorax -5.21107 0.0965934 1.93812
lowerneck -22.9252 -5.45495 -7.76602
upperneck 29.1368 -6.62815 6.09279
head 14.3353 -2.72996 2.55911
rclavicle 6.9264e-016 9.54166e-015
rhumerus -38.3468 -8.06907 -73.7264
rradius 23.0848
rwrist 14.436
rhand -15.8916 -20.7498
rfingers 7.12502
rthumb 10.3048 -50.4773
lclavicle 6.9264e-016 9.54166e-015
lhumerus -37.0385 18.1651 80.736
lradius 17.9706
lwrist 10.0754
lhand -30.9018 7.45648
lfingers 7.12502
lthumb -4.18826 37.3951
rfemur 3.44836 4.05291 13.1404
rtibia 1.11319e-014
rfoot -8.50403 -17.3728
rtoes -0.850975
lfemur -8.57647 -22.9895 -10.1064
ltibia 22.9992
lfoot -27.4527 19.2687
ltoes -9.10474
427
root -10.2912 17.9121 -16.4835 -35.1391 87.0688 -39.8223
lowerback 4.05753 -0.00704281 0.316229
upperback -2.82891 0.136528 2.02351
thorax -5.21079 0.10822 1.90798
lowerneck -22.9249 -5.4675 -7.76203
upperneck 29.1722 -6.64515 6.08311
head 14.3517 -2.73735 2.55198
rclavicle 1.67414e-015 -6.36111e-015
rhumerus -38.3028 -8.29215 -73.665
rradius 23.272
rwrist 14.678
rhand -15.8025 -20.5372
rfingers 7.12502
rthumb 10.3906 -50.2605
lclavicle 1.67414e-015 -6.36111e-015
lhumerus -36.9291 17.954 80.871
lradius 18.2466
lwrist 10.3202
lhand -30.8029 7.46849
lfingers 7.12502
lthumb -4.09278 37.4089
rfemur 3.35444 4.03581 13.0966
rtibia 6.36111e-015
rfoot -8.44359 -17.3772
rtoes -1.02543
lfemur -8.63616 -22.9346 -10.1062
ltibia 22.9189
lfoot -27.3077 19.3072
ltoes -9.51529
